<svg xmlns="http://www.w3.org/2000/svg" xmlns:xlink="http://www.w3.org/1999/xlink" width="500" zoomAndPan="magnify" viewBox="0 0 375 374.999991" height="500" preserveAspectRatio="xMidYMid meet" version="1.0"><defs><clipPath id="65837df2ff"><path d="M 187.5 0 C 83.945312 0 0 83.945312 0 187.5 C 0 291.054688 83.945312 375 187.5 375 C 291.054688 375 375 291.054688 375 187.5 C 375 83.945312 291.054688 0 187.5 0 " clip-rule="nonzero"/></clipPath><clipPath id="57ecd31863"><path d="M 45.695312 65.015625 L 329.945312 65.015625 L 329.945312 310.265625 L 45.695312 310.265625 Z M 45.695312 65.015625 " clip-rule="nonzero"/></clipPath></defs><g clip-path="url(#65837df2ff)"><rect x="-37.5" width="450" fill="#ffffff" y="-37.499999" height="449.999989" fill-opacity="1"/></g><g clip-path="url(#57ecd31863)"><path fill="#011936" d="M 326.421875 92.441406 C 324.167969 87.113281 320.9375 82.328125 316.828125 78.222656 C 312.71875 74.117188 307.929688 70.894531 302.597656 68.640625 C 297.074219 66.304688 291.207031 65.121094 285.164062 65.121094 L 168.347656 65.121094 C 162.308594 65.121094 156.441406 66.304688 150.917969 68.640625 C 145.585938 70.894531 140.796875 74.117188 136.6875 78.222656 C 132.574219 82.328125 129.347656 87.113281 127.09375 92.441406 C 124.753906 97.957031 123.570312 103.816406 123.570312 109.855469 L 123.570312 123.46875 L 90.472656 123.46875 C 84.429688 123.46875 78.566406 124.652344 73.042969 126.984375 C 67.707031 129.238281 62.917969 132.460938 58.808594 136.566406 C 54.699219 140.675781 51.472656 145.457031 49.214844 150.785156 C 46.878906 156.304688 45.695312 162.160156 45.695312 168.195312 L 45.695312 226.542969 C 45.695312 235.558594 48.367188 244.25 53.429688 251.675781 C 58.363281 258.921875 65.242188 264.523438 73.316406 267.871094 C 76.710938 269.277344 78.605469 272.90625 77.820312 276.5 L 72.007812 303.089844 C 71.476562 305.515625 72.542969 308.011719 74.664062 309.3125 C 75.605469 309.886719 76.660156 310.167969 77.710938 310.167969 C 79.035156 310.167969 80.347656 309.722656 81.417969 308.84375 L 113.820312 282.28125 C 122.476562 275.183594 133.417969 271.273438 144.621094 271.273438 L 207.289062 271.273438 C 213.332031 271.273438 219.195312 270.089844 224.71875 267.757812 C 230.054688 265.503906 234.84375 262.277344 238.953125 258.171875 C 243.0625 254.066406 246.289062 249.28125 248.546875 243.957031 C 250.882812 238.4375 252.066406 232.578125 252.066406 226.542969 L 252.066406 217.71875 C 255.542969 219.386719 258.804688 221.464844 261.820312 223.941406 L 294.21875 250.5 C 295.289062 251.378906 296.605469 251.824219 297.925781 251.824219 C 298.976562 251.824219 300.035156 251.542969 300.976562 250.96875 C 303.097656 249.671875 304.160156 247.175781 303.632812 244.746094 L 297.816406 218.152344 C 297.03125 214.5625 298.925781 210.933594 302.324219 209.527344 C 310.398438 206.175781 317.277344 200.578125 322.210938 193.332031 C 327.269531 185.90625 329.945312 177.214844 329.945312 168.199219 L 329.945312 109.855469 C 329.945312 103.816406 328.757812 97.957031 326.421875 92.441406 Z M 240.386719 226.542969 C 240.386719 244.773438 225.539062 259.605469 207.289062 259.605469 L 144.621094 259.605469 C 130.71875 259.605469 117.148438 264.453125 106.40625 273.261719 L 87.007812 289.164062 L 89.234375 278.988281 C 91.226562 269.878906 86.417969 260.667969 77.796875 257.09375 C 65.390625 251.949219 57.375 239.957031 57.375 226.542969 L 57.375 168.195312 C 57.375 149.964844 72.222656 135.136719 90.472656 135.136719 L 207.289062 135.136719 C 207.574219 135.136719 207.859375 135.140625 208.140625 135.148438 C 220.613281 135.464844 231.390625 142.707031 236.761719 153.160156 C 237.003906 153.636719 237.238281 154.117188 237.457031 154.605469 C 238.011719 155.824219 238.492188 157.085938 238.898438 158.378906 C 239.058594 158.894531 239.207031 159.417969 239.34375 159.945312 C 239.480469 160.472656 239.601562 161.007812 239.714844 161.542969 C 240.15625 163.695312 240.386719 165.917969 240.386719 168.199219 Z M 318.261719 168.195312 C 318.261719 181.613281 310.246094 193.605469 297.84375 198.75 C 289.222656 202.324219 284.410156 211.535156 286.402344 220.644531 L 288.628906 230.820312 L 269.230469 214.917969 C 264.054688 210.671875 258.296875 207.367188 252.066406 205.050781 L 252.066406 168.199219 C 252.066406 162.160156 250.882812 156.304688 248.546875 150.785156 C 248.40625 150.453125 248.261719 150.121094 248.113281 149.792969 C 246.179688 145.519531 243.613281 141.609375 240.453125 138.140625 C 239.964844 137.605469 239.464844 137.082031 238.953125 136.566406 C 234.84375 132.460938 230.054688 129.238281 224.71875 126.984375 C 219.195312 124.652344 213.332031 123.46875 207.289062 123.46875 L 135.253906 123.46875 L 135.253906 109.855469 C 135.253906 91.625 150.097656 76.792969 168.347656 76.792969 L 285.164062 76.792969 C 303.414062 76.792969 318.261719 91.621094 318.261719 109.851562 Z M 318.261719 168.195312 " fill-opacity="1" fill-rule="nonzero"/></g><path fill="#011936" d="M 207.289062 162.363281 L 90.472656 162.363281 C 87.25 162.363281 84.632812 164.976562 84.632812 168.199219 C 84.632812 171.421875 87.25 174.03125 90.472656 174.03125 L 207.289062 174.03125 C 210.515625 174.03125 213.128906 171.421875 213.128906 168.199219 C 213.128906 164.976562 210.515625 162.363281 207.289062 162.363281 Z M 207.289062 162.363281 " fill-opacity="1" fill-rule="nonzero"/><path fill="#011936" d="M 148.882812 201.257812 L 90.472656 201.257812 C 87.25 201.257812 84.632812 203.871094 84.632812 207.09375 C 84.632812 210.316406 87.25 212.929688 90.472656 212.929688 L 148.882812 212.929688 C 152.105469 212.929688 154.722656 210.316406 154.722656 207.09375 C 154.722656 203.871094 152.105469 201.257812 148.882812 201.257812 Z M 148.882812 201.257812 " fill-opacity="1" fill-rule="nonzero"/></svg>